<?xml version="1.0" encoding="utf-8"?>
<!-- Generator: Adobe Illustrator 27.5.0, SVG Export Plug-In . SVG Version: 6.00 Build 0)  -->
<svg version="1.0" id="Layer_1" xmlns="http://www.w3.org/2000/svg" xmlns:xlink="http://www.w3.org/1999/xlink" x="0px" y="0px"
	 viewBox="0 0 299.7 230.9" style="enable-background:new 0 0 299.7 230.9;" xml:space="preserve">
<g>
	<path d="M214.8,174h-0.6c-0.5,0-0.9-0.2-1.2-0.5c-0.2-0.2-0.3-0.8-0.3-1.7v-4.2c0.1,0,0.2,0,0.3,0c0.1,0,0.2,0,0.3,0
		c0.2,0,0.5,0,0.9,0l4.9,6.8h3.9V174c-0.8-0.1-1.4-0.3-1.9-0.6c-0.5-0.3-1.1-0.9-1.8-1.9l-3-4.2c1.2-0.3,2.1-0.7,2.7-1.4
		c0.6-0.7,0.9-1.4,0.9-2.3c0-0.8-0.3-1.6-0.8-2.2c-0.5-0.6-1.1-1-1.9-1.2c-0.7-0.2-1.9-0.3-3.4-0.3h-5.3v0.4h0.5
		c0.5,0,1,0.2,1.2,0.5c0.2,0.2,0.3,0.8,0.3,1.7v9.4c0,0.8-0.1,1.4-0.2,1.6c-0.3,0.4-0.7,0.6-1.3,0.6h-0.5v0.4h6.2V174z M212.8,160.9
		c0.7-0.1,1.3-0.2,1.7-0.2c0.9,0,1.7,0.3,2.2,0.9c0.6,0.6,0.9,1.3,0.9,2.2c0,0.9-0.4,1.7-1.1,2.3c-0.7,0.6-1.7,0.9-3.1,0.9
		c-0.1,0-0.1,0-0.2,0c-0.1,0-0.2,0-0.4,0V160.9z"/>
	<path d="M228.4,174.7c0.9,0,1.7-0.2,2.5-0.7c0.7-0.5,1.3-1.1,1.7-2c0.4-0.9,0.6-1.8,0.6-2.7c0-1.2-0.4-2.4-1.1-3.3
		c-0.9-1.1-2.1-1.7-3.6-1.7c-0.8,0-1.6,0.2-2.3,0.6c-0.7,0.4-1.3,1.1-1.8,2c-0.4,0.9-0.7,1.8-0.7,2.7c0,1.2,0.4,2.3,1.1,3.3
		C225.8,174.1,227,174.7,228.4,174.7z M226.2,166.5c0.2-0.6,0.5-1,0.9-1.2c0.4-0.2,0.8-0.3,1.1-0.3c0.8,0,1.4,0.3,1.9,1
		c0.7,1,1.1,2.4,1.1,4.1c0,1.4-0.2,2.4-0.7,2.9c-0.4,0.6-1,0.9-1.7,0.9c-0.9,0-1.7-0.5-2.2-1.5c-0.6-1-0.9-2.3-0.9-3.7
		C225.8,167.8,225.9,167,226.2,166.5z"/>
	<path d="M238.5,170c1,0.5,1.7,0.9,2.1,1.3c0.3,0.3,0.5,0.7,0.5,1.2c0,0.4-0.2,0.8-0.5,1c-0.3,0.3-0.7,0.4-1.2,0.4
		c-0.7,0-1.3-0.3-1.9-0.8c-0.6-0.5-0.9-1.3-1.1-2.3H236v3.5h0.4c0.1-0.2,0.2-0.3,0.4-0.3c0.1,0,0.3,0,0.6,0.1
		c0.8,0.2,1.5,0.3,2.1,0.3c0.8,0,1.6-0.3,2.3-0.8c0.7-0.5,1-1.3,1-2.2c0-1.2-0.7-2.1-2.2-2.8l-1.6-0.8c-0.7-0.3-1.1-0.6-1.3-0.9
		c-0.2-0.3-0.3-0.6-0.3-1c0-0.3,0.2-0.6,0.5-0.9c0.3-0.3,0.7-0.4,1.2-0.4c0.7,0,1.2,0.2,1.6,0.6c0.4,0.4,0.8,1.1,1,2.1h0.4v-3.3
		h-0.4c-0.1,0.2-0.2,0.3-0.2,0.3c-0.1,0-0.2,0.1-0.3,0.1c-0.1,0-0.4-0.1-0.7-0.2c-0.5-0.2-1-0.2-1.4-0.2c-0.9,0-1.6,0.3-2.1,0.8
		c-0.6,0.5-0.8,1.2-0.8,2c0,0.6,0.2,1.1,0.5,1.5C236.8,169.1,237.5,169.5,238.5,170z"/>
	<path d="M250.4,172.9c0,0.6,0.1,1,0.3,1.2c0.2,0.2,0.5,0.4,0.8,0.4c0.7,0,1.5-0.5,2.3-1.6v-0.6c-0.4,0.4-0.7,0.7-0.9,0.8
		c-0.1,0.1-0.2,0.1-0.3,0.1c-0.1,0-0.2,0-0.3-0.1c-0.1-0.1-0.1-0.2-0.2-0.4c0-0.2-0.1-0.8-0.1-1.7v-3.3c0-0.9-0.1-1.6-0.2-1.9
		c-0.2-0.5-0.5-0.8-0.9-1c-0.6-0.3-1.3-0.4-2.1-0.4c-1.1,0-2,0.3-2.6,0.8c-0.6,0.5-0.9,1.1-0.9,1.7c0,0.3,0.1,0.6,0.3,0.8
		c0.2,0.2,0.4,0.3,0.6,0.3c0.3,0,0.5-0.1,0.7-0.3c0.2-0.2,0.3-0.4,0.3-0.8l0-0.6c0-0.3,0.1-0.6,0.4-0.8c0.3-0.2,0.6-0.4,1.1-0.4
		c0.6,0,1,0.2,1.4,0.5c0.3,0.4,0.5,1,0.5,2v0.4c-1.7,0.6-2.9,1.1-3.6,1.6c-0.7,0.4-1.2,0.9-1.5,1.4c-0.2,0.3-0.3,0.8-0.3,1.2
		c0,0.8,0.2,1.4,0.7,1.8c0.4,0.5,1,0.7,1.7,0.7c0.4,0,0.8-0.1,1.2-0.3C248.7,174.2,249.4,173.7,250.4,172.9z M247.2,172.8
		c-0.3-0.3-0.5-0.8-0.5-1.3c0-0.4,0.1-0.8,0.4-1.1c0.2-0.3,0.6-0.7,1.2-1c0.3-0.2,1-0.5,2.1-0.9v3.7c-0.9,0.7-1.6,1.1-2.1,1.1
		C247.8,173.3,247.5,173.1,247.2,172.8z"/>
	<path d="M171.8,196.3c-0.4,0.9-0.7,1.6-1.1,2c-0.4,0.4-0.8,0.7-1.2,0.9s-1.2,0.2-2.3,0.2h-1.1c-0.9,0-1.5,0-1.7-0.1
		c-0.2-0.1-0.3-0.2-0.4-0.3c-0.1-0.2-0.2-0.6-0.2-1.2v-9.1c0-0.9,0.1-1.4,0.2-1.6c0.1-0.2,0.3-0.4,0.6-0.6c0.3-0.1,0.8-0.2,1.6-0.2
		v-0.4h-6.6v0.4h0.5c0.5,0,1,0.2,1.2,0.5c0.2,0.2,0.3,0.8,0.3,1.7v9.4c0,0.8-0.1,1.4-0.2,1.6c-0.3,0.4-0.7,0.6-1.3,0.6h-0.5v0.4H171
		l1.2-3.9L171.8,196.3z"/>
	<path d="M174.8,191.4c0.1,0.2,0.1,0.5,0.1,1v4.4c0,0.9,0.1,1.6,0.2,2.1c0.2,0.5,0.4,0.9,0.8,1.2c0.4,0.3,0.9,0.5,1.4,0.5
		c0.5,0,1-0.1,1.4-0.4c0.4-0.2,1.1-0.8,1.9-1.7v2.1h0.5l2.9-1.2l-0.1-0.4c-0.3,0.1-0.5,0.2-0.7,0.2c-0.2,0-0.3,0-0.4-0.1
		c-0.1-0.1-0.2-0.3-0.3-0.5c-0.1-0.3-0.1-0.9-0.1-2.1v-5.9h-3.3v0.4c0.6,0,1.1,0.1,1.3,0.3c0.2,0.2,0.3,0.6,0.3,1.1v5.6
		c-0.5,0.5-1,0.9-1.4,1.1c-0.4,0.2-0.7,0.3-1,0.3c-0.4,0-0.8-0.1-1.1-0.4c-0.3-0.3-0.5-0.9-0.5-1.8v-6.6h-3.4v0.4
		c0.5,0,0.9,0,1.1,0.1C174.6,191.1,174.7,191.2,174.8,191.4z"/>
	<path d="M190.2,196l1.4,2.1c0.5,0.7,0.7,1.1,0.7,1.2s-0.1,0.3-0.2,0.4c-0.2,0.1-0.4,0.2-0.7,0.2v0.4h4.6v-0.4c-0.4,0-0.7-0.1-1-0.3
		c-0.3-0.2-0.7-0.7-1.3-1.6l-2.4-3.5l1.3-1.8c0.6-0.8,1.1-1.3,1.4-1.6c0.3-0.2,0.6-0.3,0.9-0.3v-0.4h-3.3v0.4c0.3,0,0.5,0.1,0.6,0.2
		c0.1,0.1,0.2,0.2,0.2,0.4c0,0.2-0.3,0.6-0.8,1.3l-0.8,1.1l-0.7-1.1c-0.2-0.2-0.3-0.4-0.4-0.5c-0.2-0.4-0.4-0.6-0.4-0.8
		c0-0.2,0.1-0.3,0.2-0.4c0.1-0.1,0.3-0.2,0.6-0.2v-0.4h-4.6v0.4c0.4,0,0.8,0.1,1.1,0.3c0.3,0.2,0.7,0.7,1.2,1.4l1.9,2.7l-2.1,2.7
		c-0.6,0.8-1.1,1.4-1.4,1.6c-0.2,0.1-0.4,0.2-0.7,0.3v0.4h3.2v-0.4c-0.3,0-0.6-0.1-0.7-0.2c-0.2-0.1-0.2-0.3-0.2-0.5
		c0-0.1,0.2-0.5,0.7-1.2L190.2,196z"/>
	<path d="M204.6,191.3c-0.7-0.7-1.6-1.1-2.7-1.1c-1.3,0-2.4,0.5-3.2,1.4c-0.9,0.9-1.3,2.2-1.3,3.9c0,1.5,0.4,2.8,1.3,3.7
		c0.8,0.9,1.8,1.4,3,1.4c1.1,0,2-0.4,2.7-1.2c0.7-0.8,1.2-1.7,1.3-2.7l-0.3-0.2c-0.3,0.9-0.7,1.5-1.2,1.8c-0.5,0.4-1,0.5-1.7,0.5
		c-1,0-1.8-0.4-2.5-1.2c-0.7-0.8-1.1-2-1.1-3.4h6.8C205.7,193,205.3,192,204.6,191.3z M198.9,193.6c0.1-0.8,0.4-1.5,0.8-1.9
		c0.5-0.5,1-0.7,1.6-0.7c0.4,0,0.8,0.1,1.1,0.3c0.4,0.2,0.6,0.5,0.8,0.9c0.1,0.3,0.2,0.7,0.2,1.3H198.9z"/>
	<path d="M222.5,199.3c-0.1-0.2-0.1-0.6-0.1-1.3v-4.2c0-0.9-0.1-1.5-0.2-1.9c-0.2-0.6-0.6-1-1-1.3c-0.4-0.3-0.9-0.4-1.4-0.4
		c-0.5,0-1.1,0.1-1.6,0.4c-0.5,0.3-1.1,0.8-1.9,1.7c-0.1-0.7-0.4-1.2-0.9-1.5c-0.4-0.4-1-0.5-1.6-0.5c-0.4,0-0.7,0.1-1.1,0.2
		c-0.4,0.1-0.7,0.4-1,0.6c-0.1,0.1-0.5,0.5-1.3,1.2v-2.1H210l-3,1.2l0.2,0.4c0.3-0.1,0.5-0.2,0.7-0.2c0.2,0,0.3,0,0.4,0.1
		c0.1,0.1,0.2,0.3,0.2,0.5c0.1,0.3,0.1,1,0.1,2.1v3.7c0,0.6,0,1-0.1,1.2c-0.1,0.2-0.2,0.4-0.4,0.5c-0.2,0.1-0.5,0.1-0.9,0.1v0.4h4.8
		v-0.4c-0.5,0-0.9,0-1.1-0.1c-0.2-0.1-0.3-0.2-0.4-0.4c-0.1-0.2-0.1-0.6-0.1-1.3v-5.2c0.3-0.4,0.8-0.7,1.4-1.1
		c0.4-0.2,0.8-0.3,1.1-0.3c0.6,0,1,0.2,1.3,0.7c0.2,0.3,0.4,0.9,0.4,1.7v4.2c0,0.6,0,0.9-0.1,1.1c-0.1,0.3-0.2,0.4-0.4,0.6
		c-0.2,0.1-0.6,0.2-1.1,0.2v0.4h4.9v-0.4c-0.5,0-0.9-0.1-1.1-0.2c-0.2-0.1-0.3-0.2-0.4-0.4c-0.1-0.2-0.1-0.6-0.1-1.3v-4.7l0-0.5
		l0-0.1c0.5-0.5,1-0.9,1.4-1.1c0.4-0.2,0.8-0.3,1.1-0.3c0.6,0,1.1,0.2,1.3,0.7c0.2,0.3,0.3,0.9,0.3,1.7v4.2c0,0.6,0,0.9,0,1
		c-0.1,0.2-0.2,0.4-0.4,0.5c-0.2,0.2-0.6,0.2-1,0.2H219v0.4h4.8v-0.4c-0.4,0-0.7-0.1-0.9-0.2C222.7,199.6,222.6,199.5,222.5,199.3z"
		/>
	<path d="M230.7,190.2c-1.1,0-2.1,0.7-3.1,2v-7.1h-0.5l-2.9,1.2l0.1,0.4c0.3-0.1,0.5-0.2,0.7-0.2c0.2,0,0.3,0,0.4,0.1
		c0.1,0.1,0.2,0.3,0.3,0.5c0.1,0.3,0.1,0.9,0.1,2.1v10.1c0.6,0.4,1.2,0.7,1.8,0.9c0.6,0.2,1.2,0.3,1.7,0.3c1.2,0,2.3-0.5,3.3-1.4
		c1.2-1.1,1.7-2.5,1.7-4.2c0-1.5-0.4-2.7-1.1-3.5C232.6,190.6,231.7,190.2,230.7,190.2z M231.8,198.7c-0.6,0.7-1.2,1.1-1.8,1.1
		c-0.4,0-0.8-0.1-1.2-0.3c-0.4-0.2-0.8-0.5-1.1-0.8v-5.9c0.4-0.4,0.8-0.7,1.1-0.9c0.4-0.2,0.8-0.3,1.1-0.3c0.7,0,1.3,0.3,1.9,1
		c0.6,0.7,0.8,1.6,0.8,2.9C232.6,197,232.3,198,231.8,198.7z"/>
	<path d="M245.8,199.2c-0.2,0-0.3,0-0.4-0.1c-0.1-0.1-0.2-0.3-0.3-0.5c-0.1-0.3-0.1-0.9-0.1-2.1v-5.9h-3.3v0.4
		c0.6,0,1.1,0.1,1.3,0.3c0.2,0.2,0.3,0.6,0.3,1.1v5.6c-0.5,0.5-1,0.9-1.4,1.1c-0.4,0.2-0.7,0.3-1,0.3c-0.4,0-0.8-0.1-1.1-0.4
		c-0.3-0.3-0.5-0.9-0.5-1.8v-6.6h-3.4v0.4c0.5,0,0.9,0,1.1,0.1c0.2,0.1,0.3,0.2,0.4,0.4c0.1,0.2,0.1,0.5,0.1,1v4.4
		c0,0.9,0.1,1.6,0.2,2.1c0.2,0.5,0.4,0.9,0.8,1.2c0.4,0.3,0.9,0.5,1.4,0.5c0.5,0,1-0.1,1.4-0.4c0.4-0.2,1.1-0.8,1.9-1.7v2.1h0.5
		l2.9-1.2l-0.1-0.4C246.3,199.1,246,199.2,245.8,199.2z"/>
	<path d="M253.9,190.2c-0.9,0-1.7,0.7-2.5,2.2v-2.2h-0.4l-3,1.2l0.1,0.4c0.3-0.1,0.5-0.2,0.7-0.2c0.2,0,0.3,0,0.5,0.1
		c0.1,0.1,0.2,0.3,0.3,0.5c0,0.2,0.1,0.9,0.1,2v3.8c0,0.6,0,0.9-0.1,1c-0.1,0.2-0.2,0.4-0.4,0.5c-0.2,0.2-0.6,0.2-1.1,0.2v0.4h5
		v-0.4c-0.4,0-0.8-0.1-1-0.2c-0.2-0.1-0.4-0.3-0.5-0.5c-0.1-0.3-0.2-0.7-0.2-1.2v-4.7c0.3-0.7,0.7-1.2,1-1.4
		c0.1-0.1,0.3-0.2,0.4-0.2c0.1,0,0.4,0.1,0.7,0.4c0.3,0.2,0.6,0.4,0.8,0.4c0.3,0,0.5-0.1,0.7-0.3c0.2-0.2,0.3-0.4,0.3-0.7
		c0-0.3-0.1-0.6-0.4-0.8C254.6,190.3,254.3,190.2,253.9,190.2z"/>
	<path d="M266,190.9c0,0-0.2,0-0.5,0h-2.1c-0.7-0.5-1.5-0.7-2.4-0.7c-1.1,0-2.1,0.4-2.8,1.1c-0.7,0.7-1.1,1.5-1.1,2.5
		c0,0.6,0.2,1.2,0.5,1.7c0.3,0.5,0.8,0.9,1.4,1.2c-0.7,0.6-1.2,1.1-1.4,1.4c-0.2,0.3-0.3,0.6-0.3,0.9c0,0.2,0.1,0.4,0.2,0.6
		c0.2,0.2,0.4,0.4,0.8,0.6c-0.7,0.7-1,1.1-1.1,1.2c-0.4,0.5-0.6,0.8-0.7,1.1c-0.1,0.2-0.1,0.3-0.1,0.5c0,0.4,0.3,0.8,0.8,1.1
		c0.9,0.6,2.1,0.9,3.5,0.9c1.8,0,3.2-0.5,4.4-1.6c0.8-0.7,1.1-1.5,1.1-2.3c0-0.6-0.2-1.1-0.6-1.5c-0.4-0.4-0.9-0.6-1.6-0.7
		c-0.4-0.1-1.4-0.1-2.9-0.1c-0.8,0-1.3,0-1.5-0.1c-0.3,0-0.6-0.1-0.7-0.2c-0.1-0.1-0.2-0.2-0.2-0.4c0-0.1,0.1-0.3,0.2-0.5
		c0.1-0.2,0.3-0.4,0.6-0.7c0.5,0.1,1,0.2,1.5,0.2c1.2,0,2.1-0.3,2.8-1c0.7-0.6,1-1.4,1-2.3c0-0.8-0.2-1.5-0.6-2h1.3
		c0.3,0,0.5,0,0.5,0c0.1,0,0.1,0,0.1-0.1c0-0.1,0.1-0.2,0.1-0.4c0-0.2,0-0.3-0.1-0.3C266.1,191,266.1,190.9,266,190.9z M258.9,200.3
		c0.9,0.1,2.1,0.2,3.7,0.2c1.1,0,1.8,0.1,2.2,0.3c0.4,0.2,0.5,0.4,0.5,0.8c0,0.5-0.3,1-0.9,1.4c-0.6,0.5-1.6,0.7-2.8,0.7
		c-1.3,0-2.4-0.2-3.1-0.7c-0.4-0.3-0.6-0.6-0.6-0.9c0-0.3,0.1-0.6,0.3-0.9C258.3,201,258.5,200.6,258.9,200.3z M262.4,196
		c-0.3,0.4-0.8,0.6-1.3,0.6c-0.6,0-1-0.2-1.4-0.7c-0.5-0.6-0.7-1.5-0.7-2.6c0-0.9,0.2-1.5,0.5-1.9s0.8-0.6,1.3-0.6
		c0.6,0,1,0.2,1.4,0.7c0.5,0.6,0.7,1.5,0.7,2.7C263,194.9,262.8,195.6,262.4,196z"/>
	<path d="M279.9,199.2c-0.1-0.2-0.1-0.7-0.1-1.5v-12.2h-0.4l-3.5,1.7l0.2,0.3c0.5-0.2,0.8-0.3,1.1-0.3c0.2,0,0.3,0.1,0.5,0.2
		c0.1,0.1,0.2,0.3,0.3,0.5c0.1,0.3,0.1,1,0.1,2v7.8c0,0.9,0,1.4-0.1,1.6c-0.1,0.2-0.2,0.3-0.4,0.4c-0.2,0.1-0.6,0.2-1.3,0.2v0.4h5.5
		v-0.4c-0.7,0-1.1-0.1-1.3-0.2C280.1,199.6,280,199.4,279.9,199.2z"/>
	<path d="M293.1,187.6l0.8-1.8h-5.2l-2.8,5.6c1.3,0,2.4,0.2,3.2,0.6c1,0.4,1.8,1,2.3,1.8c0.6,0.8,0.8,1.6,0.8,2.5
		c0,0.9-0.3,1.7-0.9,2.3c-0.6,0.6-1.4,0.9-2.2,0.9c-0.5,0-1.1-0.2-1.6-0.6c-0.3-0.2-0.6-0.4-0.7-0.4c-0.1-0.1-0.3-0.1-0.5-0.1
		c-0.2,0-0.5,0.1-0.6,0.2c-0.2,0.2-0.2,0.3-0.2,0.5c0,0.4,0.2,0.7,0.6,1c0.4,0.3,1,0.4,1.9,0.4c0.9,0,1.7-0.2,2.5-0.6
		c0.6-0.3,1.1-0.6,1.6-1.1c0.5-0.5,0.9-1,1.2-1.7c0.3-0.6,0.5-1.4,0.5-2.1c0-1.3-0.5-2.4-1.4-3.4c-1.1-1.1-2.6-1.8-4.5-2.1l1-1.9
		H293.1z"/>
	<path d="M299.4,198.8c-0.4-0.4-0.8-0.6-1.3-0.6c-0.4,0-0.7,0.1-1,0.4c-0.3,0.2-0.4,0.5-0.4,0.9c0,0.4,0.1,0.6,0.3,0.9
		c0.2,0.2,0.5,0.3,0.8,0.3c0.1,0,0.3,0,0.4-0.1c0.3-0.1,0.4-0.2,0.5-0.2c0,0,0.1,0,0.1,0.1c0.1,0.1,0.1,0.2,0.1,0.3
		c0,0.6-0.2,1.1-0.6,1.6c-0.4,0.5-1,0.9-1.7,1.1v0.5c1.1-0.4,1.9-0.9,2.4-1.5c0.5-0.6,0.8-1.3,0.8-2
		C300,199.7,299.8,199.2,299.4,198.8z"/>
	<path d="M116,223.5l-5.3-5.3l2.2-2.2c1.3-1.3,2-2,2.2-2.2c0.5-0.5,1-0.9,1.4-1.1c0.4-0.2,0.7-0.4,0.9-0.5c0.3-0.1,0.5-0.1,0.9-0.1
		v-0.4h-5.3v0.4h0.3c0.4,0,0.6,0.1,0.8,0.2c0.1,0.1,0.2,0.3,0.2,0.4c0,0.2-0.1,0.5-0.3,0.7c-0.4,0.7-1.7,1.9-3.8,3.9
		c-0.8,0.8-1.3,1.2-1.5,1.4v-4.4c0-0.7,0-1.2,0.1-1.4c0.1-0.2,0.2-0.4,0.5-0.5c0.3-0.2,0.6-0.2,1-0.2h0.5v-0.4h-6.2v0.4h0.5
		c0.3,0,0.7,0.1,1,0.3c0.2,0.1,0.4,0.3,0.4,0.5c0.1,0.2,0.1,0.7,0.1,1.5v9.4c0,0.9-0.1,1.4-0.3,1.6c-0.3,0.3-0.7,0.5-1.3,0.5h-0.5
		v0.4h6.2v-0.4h-0.5c-0.3,0-0.7-0.1-1-0.3c-0.2-0.1-0.4-0.3-0.4-0.5c-0.1-0.2-0.1-0.7-0.1-1.5V219l5,4.9c0.4,0.4,0.6,0.6,0.7,0.8
		c0.1,0.1,0.1,0.3,0.1,0.5s-0.1,0.3-0.3,0.5c-0.2,0.1-0.5,0.2-0.9,0.2v0.4h6.9v-0.4c-0.6,0-1.2-0.2-1.9-0.5
		C117.7,225,116.9,224.4,116,223.5z"/>
	<path d="M127.4,216.1c-0.9,0-1.7,0.7-2.5,2.2v-2.2h-0.4l-3,1.2l0.1,0.4c0.3-0.1,0.5-0.2,0.7-0.2c0.2,0,0.3,0,0.5,0.1
		c0.1,0.1,0.2,0.3,0.3,0.5c0,0.2,0.1,0.9,0.1,2v3.8c0,0.6,0,0.9-0.1,1c-0.1,0.2-0.2,0.4-0.4,0.5c-0.2,0.2-0.6,0.2-1.1,0.2v0.4h5
		v-0.4c-0.4,0-0.8-0.1-1-0.2c-0.2-0.1-0.4-0.3-0.5-0.5c-0.1-0.3-0.2-0.7-0.2-1.2v-4.7c0.3-0.7,0.7-1.2,1-1.4
		c0.1-0.1,0.3-0.2,0.4-0.2c0.1,0,0.4,0.1,0.7,0.4c0.3,0.2,0.6,0.4,0.8,0.4c0.3,0,0.5-0.1,0.7-0.3c0.2-0.2,0.3-0.4,0.3-0.7
		c0-0.3-0.1-0.6-0.4-0.8C128.1,216.2,127.8,216.1,127.4,216.1z"/>
	<path d="M134.7,216.1c-0.8,0-1.6,0.2-2.3,0.6c-0.7,0.4-1.3,1.1-1.8,2c-0.4,0.9-0.7,1.8-0.7,2.7c0,1.2,0.4,2.3,1.1,3.3
		c0.9,1.2,2,1.8,3.5,1.8c0.9,0,1.7-0.2,2.5-0.7c0.7-0.5,1.3-1.1,1.7-2c0.4-0.9,0.6-1.8,0.6-2.7c0-1.2-0.4-2.4-1.1-3.3
		C137.4,216.7,136.2,216.1,134.7,216.1z M136.7,224.9c-0.4,0.6-1,0.9-1.7,0.9c-0.9,0-1.7-0.5-2.2-1.5c-0.6-1-0.8-2.3-0.8-3.7
		c0-0.9,0.1-1.6,0.4-2.2c0.2-0.6,0.5-1,0.9-1.2c0.4-0.2,0.8-0.3,1.1-0.3c0.8,0,1.4,0.3,1.9,1c0.7,1,1.1,2.4,1.1,4.1
		C137.4,223.3,137.2,224.3,136.7,224.9z"/>
	<path d="M147.3,216.1c-0.6,0-1.1,0.2-1.6,0.5c-0.5,0.3-1,1-1.5,1.8v-2.3h-0.4l-3,1.2l0.1,0.3c0.3-0.1,0.5-0.2,0.7-0.2
		c0.2,0,0.4,0,0.5,0.1c0.1,0.1,0.2,0.2,0.3,0.4c0.1,0.2,0.1,0.6,0.1,1.2v9.3c0,0.7,0,1.2-0.1,1.3c-0.1,0.2-0.2,0.3-0.3,0.4
		c-0.3,0.2-0.6,0.2-1,0.2h-0.3v0.4h5.1v-0.4c-0.5,0-0.9-0.1-1.1-0.2c-0.2-0.1-0.3-0.3-0.4-0.4c-0.1-0.2-0.1-0.6-0.1-1.3v-3
		c0.4,0.3,0.7,0.5,1,0.6c0.4,0.1,0.8,0.2,1.4,0.2c1.2,0,2.2-0.5,3-1.4c1-1.1,1.5-2.5,1.5-4.2c0-1.5-0.4-2.7-1.2-3.7
		C149.1,216.5,148.3,216.1,147.3,216.1z M148.2,225c-0.4,0.6-1,0.8-1.7,0.8c-0.6,0-1.1-0.2-1.5-0.5c-0.4-0.3-0.6-0.7-0.7-1.1
		c-0.1-0.2-0.1-0.8-0.1-1.6v-3.7c0.6-0.6,1-1,1.3-1.2c0.3-0.2,0.7-0.3,1-0.3c0.6,0,1.2,0.3,1.6,0.8c0.7,0.8,1,2,1,3.5
		C149.1,223.3,148.8,224.3,148.2,225z"/>
	<path d="M158.1,216.1c-0.8,0-1.6,0.2-2.3,0.6c-0.7,0.4-1.3,1.1-1.8,2c-0.4,0.9-0.7,1.8-0.7,2.7c0,1.2,0.4,2.3,1.1,3.3
		c0.9,1.2,2,1.8,3.5,1.8c0.9,0,1.7-0.2,2.5-0.7c0.7-0.5,1.3-1.1,1.7-2c0.4-0.9,0.6-1.8,0.6-2.7c0-1.2-0.4-2.4-1.1-3.3
		C160.8,216.7,159.6,216.1,158.1,216.1z M160.1,224.9c-0.4,0.6-1,0.9-1.7,0.9c-0.9,0-1.7-0.5-2.2-1.5c-0.6-1-0.8-2.3-0.8-3.7
		c0-0.9,0.1-1.6,0.4-2.2s0.5-1,0.9-1.2c0.4-0.2,0.8-0.3,1.1-0.3c0.8,0,1.4,0.3,1.9,1c0.7,1,1.1,2.4,1.1,4.1
		C160.8,223.3,160.6,224.3,160.1,224.9z"/>
	<path d="M169.3,224.9c-0.2,0.1-0.4,0.2-0.7,0.2c-0.3,0-0.5-0.1-0.7-0.3c-0.2-0.2-0.3-0.6-0.3-1.3v-6.4h2.3v-0.7h-2.3v-3.2h-0.3
		c-0.3,0.7-0.5,1.2-0.7,1.5c-0.3,0.5-0.7,1-1.1,1.3c-0.4,0.4-0.8,0.6-1.2,0.8v0.4h1.6v6.6c0,0.7,0.1,1.2,0.2,1.6
		c0.1,0.3,0.4,0.6,0.7,0.8c0.3,0.2,0.6,0.3,1,0.3c0.5,0,1-0.2,1.4-0.5c0.5-0.4,0.8-0.9,1.1-1.6h-0.4
		C169.7,224.5,169.6,224.8,169.3,224.9z"/>
	<path d="M180.5,225.1c-0.2-0.2-0.7-0.8-1.4-1.7l-2.5-3.2l2.5-2.3c0.5-0.4,0.9-0.7,1.3-0.9c0.4-0.2,0.9-0.3,1.5-0.3v-0.3h-4.3v0.3
		c0.3,0,0.5,0.1,0.6,0.2c0.1,0.1,0.2,0.2,0.2,0.4c0,0.1,0,0.2-0.1,0.3c-0.1,0.1-0.4,0.4-0.9,0.9l-2.5,2.3l3,3.8
		c0.3,0.4,0.4,0.6,0.4,0.8c0,0.1,0,0.2-0.1,0.3c-0.1,0.1-0.3,0.1-0.6,0.1v0.4h4.8v-0.4c-0.4,0-0.8,0-0.9-0.1
		C181.1,225.6,180.8,225.4,180.5,225.1z"/>
	<path d="M174.3,211l-2.9,1.2l0.2,0.4c0.3-0.1,0.5-0.2,0.7-0.2c0.2,0,0.3,0,0.4,0.1c0.1,0.1,0.2,0.3,0.2,0.5c0,0.3,0.1,0.9,0.1,2.1
		v8.9c0,0.6-0.1,1-0.2,1.2c-0.1,0.2-0.2,0.3-0.3,0.4c-0.2,0.1-0.6,0.2-1.1,0.2v0.4h5v-0.4c-0.5,0-0.9-0.1-1.1-0.1
		c-0.2-0.1-0.3-0.2-0.4-0.4c-0.1-0.2-0.1-0.6-0.1-1.3v-3.3V211H174.3z"/>
	<path d="M187.3,212.9c0.2-0.2,0.3-0.5,0.3-0.8s-0.1-0.6-0.3-0.8c-0.2-0.2-0.5-0.3-0.8-0.3c-0.3,0-0.6,0.1-0.8,0.3
		c-0.2,0.2-0.3,0.5-0.3,0.8s0.1,0.6,0.3,0.8c0.2,0.2,0.5,0.3,0.8,0.3S187,213.1,187.3,212.9z"/>
	<path d="M187.5,225.2c-0.1-0.2-0.1-0.6-0.1-1.2v-7.9h-0.5l-3,1.2l0.1,0.4c0.3-0.1,0.5-0.2,0.7-0.2c0.2,0,0.3,0,0.4,0.1
		c0.1,0.1,0.2,0.2,0.2,0.5c0.1,0.3,0.1,1,0.1,2.1v3.8c0,0.6,0,1-0.1,1.2c-0.1,0.2-0.2,0.4-0.4,0.5s-0.5,0.1-1,0.1v0.4h4.8v-0.4
		c-0.5,0-0.8,0-1-0.1C187.7,225.6,187.6,225.4,187.5,225.2z"/>
	<path d="M199.9,225.3c-0.1-0.2-0.1-0.6-0.1-1.3v-4.2c0-0.9-0.1-1.5-0.2-2c-0.2-0.6-0.5-1.1-0.9-1.3c-0.4-0.3-0.8-0.4-1.4-0.4
		c-1,0-2.1,0.7-3.3,2.1v-2.1h-0.5l-3,1.2l0.2,0.4c0.3-0.1,0.5-0.2,0.7-0.2c0.2,0,0.3,0,0.4,0.1c0.1,0.1,0.2,0.3,0.2,0.5
		c0.1,0.3,0.1,1,0.1,2.1v3.6c0,0.7-0.1,1.2-0.3,1.4c-0.2,0.3-0.5,0.4-1,0.4h-0.2v0.4h4.8v-0.4c-0.5,0-0.9,0-1.1-0.1
		c-0.2-0.1-0.3-0.2-0.4-0.5c-0.1-0.2-0.1-0.6-0.1-1.2v-5.2c0.8-0.9,1.7-1.4,2.5-1.4c0.5,0,0.9,0.2,1.2,0.6c0.2,0.4,0.3,1.1,0.3,1.9
		v4c0,0.6,0,0.9,0,1c-0.1,0.3-0.2,0.5-0.4,0.6c-0.2,0.1-0.5,0.2-1,0.2h-0.2v0.4h4.8v-0.4c-0.5,0-0.8,0-1-0.1
		C200.1,225.6,200,225.4,199.9,225.3z"/>
	<polygon points="0,152.8 0,158.1 0,162.4 0,205.4 1.3,205.4 1.3,162.4 1.3,158.1 1.3,152.8 1.3,105.6 0,105.6 	"/>
	<polygon points="106.4,205.4 106.4,158.1 106.4,152.8 106.4,147.6 106.4,105.6 105.1,105.6 105.1,147.6 105.1,152.8 105.1,158.1 
		105.1,205.4 105.1,205.4 106.4,205.4 	"/>
	<polygon points="159,111 159,105.6 159,53 157.7,53 157.7,105.6 157.7,111 157.7,152.8 159,152.8 	"/>
	<polygon points="55.8,207.4 50.6,207.4 3.3,207.4 3.3,208.7 50.6,208.7 55.8,208.7 61.7,208.7 103.1,208.7 103.1,207.4 61.7,207.4 
			"/>
	<polygon points="55.8,102.3 50.6,102.3 3.3,102.3 3.3,103.6 50.6,103.6 55.8,103.6 65.5,103.6 103.1,103.6 103.1,102.3 65.5,102.3 
			"/>
	<rect x="-6.5" y="76" transform="matrix(0.7071 -0.7071 0.7071 0.7071 -46.3206 41.4968)" width="66.9" height="1.3"/>
	<rect x="98.6" y="76" transform="matrix(0.7071 -0.7071 0.7071 0.7071 -15.5387 115.8143)" width="66.9" height="1.3"/>
	<rect x="98.6" y="181.1" transform="matrix(0.7071 -0.7071 0.7071 0.7071 -89.8558 146.596)" width="66.9" height="1.3"/>
	<rect x="46" y="23.5" transform="matrix(0.7071 -0.7071 0.7071 0.7071 6.2304 63.267)" width="66.9" height="1.3"/>
	<rect x="78.8" y="43.2" transform="matrix(0.7071 -0.7071 0.7071 0.7071 -30.9296 78.6591)" width="1.3" height="66.9"/>
	<rect x="131.4" y="-9.3" transform="matrix(0.7071 -0.7071 0.7071 0.7071 21.6225 100.427)" width="1.3" height="66.9"/>
	<path d="M23.6,136.2c-0.3,0.4-0.7,0.6-1.3,0.6h-0.5v0.4h6.2v-0.4h-0.6c-0.5,0-1-0.2-1.2-0.5c-0.2-0.2-0.3-0.8-0.3-1.7v-4.2
		c0.5,0.1,0.9,0.2,1.3,0.2c0.4,0,0.8,0.1,1.1,0.1c1.4,0,2.5-0.4,3.3-1.1c0.8-0.7,1.2-1.7,1.2-2.9c0-0.9-0.3-1.6-0.8-2.3
		c-0.5-0.6-1.1-1.1-1.9-1.4c-0.7-0.3-1.8-0.4-3.1-0.4h-5.3v0.4h0.5c0.5,0,1,0.2,1.2,0.5c0.2,0.2,0.3,0.8,0.3,1.7v9.4
		C23.8,135.5,23.7,136,23.6,136.2z M25.9,123.8c0.6-0.1,1-0.2,1.4-0.2c0.6,0,1.1,0.1,1.6,0.4c0.5,0.3,0.8,0.7,1.1,1.2
		c0.3,0.5,0.4,1.1,0.4,1.7c0,0.9-0.3,1.7-0.8,2.2c-0.5,0.6-1.2,0.9-1.9,0.9c-0.2,0-0.5,0-0.7-0.1s-0.6-0.1-1-0.2V123.8z"/>
	<path d="M26.6,188.4c-0.8,0-1.5-0.2-2.2-0.6s-1.2-0.9-1.6-1.5l-0.4,0.2c1.1,1.9,2.7,2.9,4.8,2.9c1.4,0,2.5-0.4,3.5-1.1
		c0.9-0.8,1.4-1.7,1.4-2.9c0-1-0.3-1.8-0.9-2.5c-0.6-0.7-1.4-1.2-2.4-1.3c0.9-0.3,1.6-0.7,2.2-1.4c0.5-0.6,0.8-1.4,0.8-2.2
		c0-1-0.4-1.8-1.1-2.5s-1.7-1.1-2.9-1.1c-0.9,0-1.7,0.1-2.5,0.4c-0.5,0.2-0.8,0.3-1,0.3c-0.4,0-0.7-0.2-0.8-0.7h-0.4v4.2h0.4
		c0.2-1,0.6-1.8,1.1-2.4c0.6-0.6,1.4-0.9,2.4-0.9c0.8,0,1.5,0.2,1.9,0.7c0.5,0.5,0.7,1.1,0.7,1.9c0,0.7-0.2,1.3-0.5,1.8
		c-0.3,0.5-0.8,0.9-1.3,1.1s-1.4,0.3-2.4,0.3v0.7c1.5,0,2.6,0.3,3.3,1c0.7,0.6,1,1.4,1,2.4c0,0.9-0.3,1.7-0.8,2.3
		C28.3,188.1,27.6,188.4,26.6,188.4z"/>
	<path d="M79.3,137.5c2,0,3.7-0.7,5-2.2c1.4-1.5,2.1-3.3,2.1-5.5c0-2.1-0.7-3.9-2.1-5.4c-1.4-1.4-3-2.1-4.9-2.1
		c-1.9,0-3.5,0.6-4.9,1.9c-1.6,1.5-2.4,3.3-2.4,5.6c0,2.3,0.7,4.1,2,5.5C75.6,136.8,77.3,137.5,79.3,137.5z M76.1,124.6
		c0.8-1,1.8-1.4,3.1-1.4c1.4,0,2.5,0.5,3.3,1.5c1,1.2,1.5,3.1,1.5,5.5c0,2.3-0.4,4-1.3,5c-0.9,1.1-2,1.6-3.4,1.6
		c-1.3,0-2.3-0.5-3.1-1.5c-1-1.3-1.5-3.1-1.5-5.5C74.6,127.6,75.1,125.8,76.1,124.6z"/>
	<path d="M71.6,189.1h4.6v-0.4c-0.7,0-1.2-0.2-1.4-0.3c-0.2-0.2-0.3-0.4-0.3-0.6c0-0.3,0.1-0.7,0.4-1.3l1-2.3h5.6l0.9,2.1
		c0.3,0.7,0.4,1.2,0.4,1.5c0,0.2-0.1,0.4-0.3,0.6c-0.2,0.2-0.6,0.3-1.2,0.3v0.4H87v-0.4c-0.6,0-1.1-0.2-1.4-0.5
		c-0.3-0.3-0.7-0.9-1.1-1.9l-5-12.1h-0.4L74,186.2c-0.4,1.1-0.8,1.7-1.2,2.1c-0.2,0.2-0.6,0.3-1.2,0.4V189.1z M78.7,177.6l2.5,5.9
		h-5L78.7,177.6z"/>
	<path d="M140.1,128c-0.7-0.6-1.5-0.9-2.3-0.9c-0.9,0-1.6,0.3-2.2,0.9c-0.5,0.6-0.8,1.4-0.8,2.2c0,1,0.3,1.8,1,2.5
		c0.7,0.7,1.5,1,2.4,1c0.8,0,1.5-0.3,2.1-0.9c0.6-0.6,0.9-1.4,0.9-2.4C141.2,129.4,140.8,128.6,140.1,128z M138.4,133.4
		c-0.6,0-1-0.4-1.4-1.2c-0.4-0.8-0.6-1.7-0.6-2.6c0-1.3,0.4-1.9,1.3-1.9c0.6,0,1.1,0.5,1.4,1.4c0.3,0.9,0.5,1.8,0.5,2.6
		C139.6,132.8,139.2,133.4,138.4,133.4z"/>
	<rect x="134.8" y="136" width="6.4" height="1.2"/>
	<path d="M124.6,135.3c-0.1,0.4-0.3,0.5-0.5,0.5c-0.1,0-0.4-0.1-0.8-0.3c-0.4-0.2-0.7-0.3-1-0.3c-0.3,0-0.6,0.1-0.8,0.3
		c-0.2,0.2-0.3,0.4-0.3,0.7c0,0.3,0.1,0.6,0.4,0.9c0.3,0.3,0.7,0.4,1.3,0.4c0.5,0,1.1-0.1,1.5-0.4c0.5-0.3,0.8-0.7,1-1.3
		c0.2-0.6,0.3-1.6,0.3-3.2v-7l6.6,11.8h0.5v-10.9c0-1,0.1-1.6,0.2-1.9c0.1-0.3,0.3-0.4,0.6-0.4c0.1,0,0.4,0.1,0.8,0.3
		c0.3,0.2,0.6,0.3,0.9,0.3c0.3,0,0.6-0.1,0.8-0.3c0.2-0.2,0.3-0.5,0.3-0.8c0-0.3-0.2-0.7-0.5-0.9c-0.3-0.3-0.7-0.4-1.3-0.4
		c-0.7,0-1.3,0.2-1.7,0.6c-0.5,0.4-0.8,0.9-0.9,1.5c-0.1,0.6-0.2,1.7-0.2,3.2v4.6l-5.4-9.8h-3.8v0.4c0.6,0,1,0.1,1.3,0.2
		c0.3,0.1,0.5,0.3,0.6,0.6c0.1,0.2,0.1,0.8,0.1,1.6v7.5C124.8,134.1,124.7,134.9,124.6,135.3z"/>
	<path d="M47.1,84.4c-0.1,0.2-0.2,0.3-0.4,0.4c-0.2,0.1-0.6,0.2-1.3,0.2v0.4h5.5V85c-0.7,0-1.1-0.1-1.3-0.2
		c-0.2-0.1-0.4-0.3-0.4-0.5c-0.1-0.2-0.1-0.7-0.1-1.5V70.6h-0.4l-3.5,1.7l0.2,0.3c0.5-0.2,0.8-0.3,1.1-0.3c0.2,0,0.3,0.1,0.5,0.2
		c0.1,0.1,0.2,0.3,0.3,0.5c0.1,0.3,0.1,1,0.1,2v7.8C47.3,83.7,47.2,84.2,47.1,84.4z"/>
	<path d="M55.2,85.2c0.4,0.3,1,0.4,1.9,0.4c0.9,0,1.7-0.2,2.5-0.6c0.6-0.3,1.1-0.6,1.6-1.1c0.5-0.5,0.9-1,1.2-1.7
		c0.3-0.6,0.5-1.4,0.5-2.1c0-1.3-0.5-2.4-1.4-3.4c-1.1-1.1-2.6-1.8-4.5-2.1l1-1.9h4.4l0.8-1.8h-5.2L55,76.5c1.3,0,2.4,0.2,3.2,0.6
		c1,0.4,1.8,1,2.3,1.8c0.6,0.8,0.8,1.6,0.8,2.5c0,0.9-0.3,1.7-0.9,2.3c-0.6,0.6-1.4,0.9-2.2,0.9c-0.5,0-1.1-0.2-1.6-0.6
		c-0.3-0.2-0.6-0.4-0.7-0.4c-0.1-0.1-0.3-0.1-0.5-0.1c-0.2,0-0.5,0.1-0.6,0.2c-0.2,0.2-0.2,0.3-0.2,0.5
		C54.6,84.6,54.8,84.9,55.2,85.2z"/>
	<path d="M182.1,125.4c0.2,0,0.3,0.1,0.5,0.2c0.1,0.1,0.2,0.3,0.3,0.5c0.1,0.3,0.1,1,0.1,2v7.8c0,0.9,0,1.4-0.1,1.6
		c-0.1,0.2-0.2,0.3-0.4,0.4c-0.2,0.1-0.6,0.2-1.3,0.2v0.4h5.5v-0.4c-0.7,0-1.1-0.1-1.3-0.2c-0.2-0.1-0.4-0.3-0.4-0.5
		c-0.1-0.2-0.1-0.7-0.1-1.5v-12.2h-0.4l-3.5,1.7l0.2,0.3C181.5,125.5,181.8,125.4,182.1,125.4z"/>
</g>
</svg>
