<?xml version="1.0" encoding="utf-8"?>
<!-- Generator: Adobe Illustrator 27.5.0, SVG Export Plug-In . SVG Version: 6.00 Build 0)  -->
<svg version="1.1" id="Layer_1" xmlns="http://www.w3.org/2000/svg" xmlns:xlink="http://www.w3.org/1999/xlink" x="0px" y="0px"
	 viewBox="0 0 299.7 230.9" style="enable-background:new 0 0 299.7 230.9;" xml:space="preserve">
<g>
	<polygon points="0,152.8 0,158.1 0,162.4 0,205.4 1.3,205.4 1.3,162.4 1.3,158.1 1.3,152.8 1.3,105.6 0,105.6 	"/>
	<polygon points="106.4,205.4 106.4,158.1 106.4,152.8 106.4,147.6 106.4,105.6 105.1,105.6 105.1,147.6 105.1,152.8 105.1,158.1 
		105.1,205.4 105.1,205.4 	"/>
	<polygon points="159,111 159,105.6 159,53 157.7,53 157.7,105.6 157.7,111 157.7,152.8 159,152.8 	"/>
	<polygon points="55.8,207.4 50.6,207.4 3.3,207.4 3.3,208.7 50.6,208.7 55.8,208.7 61.7,208.7 103.1,208.7 103.1,207.4 61.7,207.4 
			"/>
	<polygon points="55.8,102.3 50.6,102.3 3.3,102.3 3.3,103.6 50.6,103.6 55.8,103.6 65.5,103.6 103.1,103.6 103.1,102.3 65.5,102.3 
			"/>
	<rect x="-6.5" y="76" transform="matrix(0.7071 -0.7071 0.7071 0.7071 -46.3034 41.4931)" width="66.9" height="1.3"/>
	<rect x="98.6" y="76" transform="matrix(0.7071 -0.7071 0.7071 0.7071 -15.5218 115.8091)" width="66.9" height="1.3"/>
	<rect x="98.6" y="181.1" transform="matrix(0.7071 -0.7071 0.7071 0.7071 -89.8375 146.5909)" width="66.9" height="1.3"/>
	<rect x="46" y="23.5" transform="matrix(0.7071 -0.7071 0.7071 0.7071 6.1941 63.2826)" width="66.9" height="1.3"/>
	<rect x="78.8" y="43.2" transform="matrix(0.7071 -0.7071 0.7071 0.7071 -30.9504 78.6376)" width="1.3" height="66.9"/>
	<rect x="131.4" y="-9.3" transform="matrix(0.7071 -0.7071 0.7071 0.7071 21.6197 100.4564)" width="1.3" height="66.9"/>
</g>
</svg>
